<?xml version="1.0" standalone="no"?>
<!DOCTYPE svg PUBLIC "-//W3C//DTD SVG 20010904//EN"
 "http://www.w3.org/TR/2001/REC-SVG-20010904/DTD/svg10.dtd">
<svg version="1.0" xmlns="http://www.w3.org/2000/svg"
 width="260.000000pt" height="260.000000pt" viewBox="0 0 260.000000 260.000000"
 preserveAspectRatio="xMidYMid meet">
<metadata>
Created by potrace 1.11, written by Peter Selinger 2001-2013
</metadata>
<g transform="translate(0.000000,260.000000) scale(0.100000,-0.100000)"
fill="#000000" stroke="none">
<path d="M167 2433 c-4 -3 -7 -11 -7 -17 0 -6 5 -5 12 2 6 6 9 14 7 17 -3 3
-9 2 -12 -2z"/>
<path d="M1686 2418 c5 -17 -34 -18 -720 -18 -639 0 -726 2 -726 15 0 20 -24
19 -41 -1 -12 -15 -11 -16 11 -9 25 8 25 8 6 -14 -15 -16 -22 -18 -33 -10 -10
9 -13 8 -13 -5 0 -9 7 -16 15 -16 13 0 15 -24 15 -160 0 -157 -1 -164 -30
-162 -3 0 -6 -11 -7 -26 -2 -26 -2 -26 7 -4 10 23 38 27 52 7 4 -5 10 -6 15
-2 4 5 2 11 -4 15 -9 5 -13 59 -13 176 -1 92 0 170 3 172 2 2 342 4 755 4 543
0 753 3 758 11 4 8 0 9 -15 4 -15 -5 -21 -2 -21 10 0 9 4 14 9 11 5 -3 13 0
19 7 8 9 3 12 -19 12 -23 0 -28 -4 -23 -17z"/>
<path d="M1753 2434 c2 -3 14 -6 26 -9 11 -2 25 -6 30 -10 5 -3 12 -1 16 5 4
6 11 7 17 4 6 -4 1 -12 -13 -20 -30 -17 -40 -17 -36 -3 1 6 -10 12 -24 13 -18
1 -25 -3 -22 -11 3 -7 8 -12 11 -11 4 1 15 -2 26 -7 12 -5 28 -3 44 7 23 14
26 14 51 -12 20 -21 34 -27 63 -26 21 2 41 6 45 9 4 4 -2 6 -13 5 -29 -4 -104
21 -104 34 0 9 3 9 12 0 7 -7 17 -12 23 -12 5 0 3 5 -5 10 -12 8 -9 9 12 8 15
-1 30 -8 32 -15 3 -7 11 -13 17 -13 7 0 2 11 -11 25 -27 29 -17 34 14 8 16
-14 18 -14 8 -2 -6 9 -10 18 -7 21 3 2 -8 4 -25 4 -16 0 -27 -3 -24 -8 3 -4
-2 -8 -10 -8 -9 0 -16 4 -16 8 0 4 -32 8 -71 9 -39 0 -68 -1 -66 -3z m117 -14
c0 -5 -2 -10 -4 -10 -3 0 -8 5 -11 10 -3 6 -1 10 4 10 6 0 11 -4 11 -10z"/>
<path d="M2010 2426 c7 -7 13 -7 20 0 6 6 3 10 -10 10 -13 0 -16 -4 -10 -10z"/>
<path d="M2070 2433 c22 -9 31 -26 17 -36 -9 -6 -9 -8 1 -5 8 2 13 7 13 11 -1
4 -1 14 -1 22 0 9 -9 15 -22 14 -16 0 -18 -2 -8 -6z"/>
<path d="M2117 2423 c3 -7 6 -13 8 -13 2 0 5 6 8 13 3 8 -1 14 -8 14 -7 0 -11
-6 -8 -14z"/>
<path d="M2145 2421 c-3 -8 -3 -12 1 -8 4 4 12 0 18 -8 13 -17 56 -9 56 11 0
7 12 15 28 17 15 2 7 4 -18 4 -24 0 -39 -2 -32 -5 6 -2 12 -8 12 -14 0 -6 -7
-7 -16 -4 -8 3 -12 2 -9 -4 3 -6 1 -10 -6 -10 -6 0 -9 8 -7 18 6 23 -19 25
-27 3z"/>
<path d="M2303 2421 c1 -12 6 -17 16 -13 10 4 11 7 3 10 -7 2 -10 8 -6 13 3 5
1 9 -5 9 -5 0 -9 -9 -8 -19z"/>
<path d="M2344 2425 c8 -21 -43 -42 -56 -23 -7 10 -9 10 -5 -2 2 -10 20 -16
55 -18 44 -3 52 -6 52 -23 0 -14 -7 -19 -25 -19 -14 0 -25 4 -25 9 0 13 -48
19 -59 8 -6 -6 -14 -7 -18 -3 -4 4 -1 12 7 17 11 8 -3 9 -48 6 -49 -4 -64 -2
-71 10 -6 11 -14 14 -27 8 -18 -8 -17 -9 4 -12 12 -3 22 -9 22 -15 0 -6 -9 -8
-22 -3 -50 15 -71 12 -113 -13 -44 -27 -71 -60 -39 -48 26 10 35 -4 18 -29
-14 -22 -21 -24 -61 -19 -41 5 -44 3 -38 -16 4 -11 2 -20 -4 -20 -6 0 -11 7
-11 16 0 14 -2 14 -16 -1 -9 -9 -19 -14 -21 -11 -3 3 9 17 26 32 18 14 30 28
27 31 -2 2 -21 1 -41 -3 -29 -5 -36 -10 -32 -25 3 -10 -2 -20 -10 -23 -21 -8
-23 -8 -23 9 0 8 -3 15 -7 16 -53 6 -62 3 -79 -23 -11 -16 -26 -28 -34 -27
-45 4 -62 -1 -56 -17 5 -14 -8 -55 -34 -106 -6 -11 -4 -18 6 -22 8 -3 12 -10
9 -16 -3 -5 -2 -10 4 -10 6 0 8 -7 5 -15 -4 -8 -1 -15 6 -15 6 0 8 -4 5 -10
-3 -5 1 -10 9 -10 20 0 20 -14 0 -45 -15 -23 -15 -25 0 -25 10 0 14 -4 11 -10
-3 -5 -18 -10 -33 -10 -34 0 -59 -15 -43 -24 6 -4 16 -4 21 -1 6 3 10 1 10 -4
0 -6 -4 -11 -10 -11 -5 0 -10 -5 -10 -11 0 -6 -9 -24 -21 -41 -12 -16 -18 -32
-14 -36 4 -4 12 1 20 11 12 16 45 15 45 -3 0 -14 -30 -68 -45 -80 -21 -17 -21
13 0 34 21 21 19 23 -15 18 -28 -4 -29 -5 -13 -18 17 -13 17 -13 -2 -14 -12 0
-26 5 -33 12 -9 9 -15 9 -24 -1 -11 -10 -9 -11 7 -5 14 5 11 -3 -13 -26 -34
-33 -128 -76 -412 -189 l-145 -58 -113 9 c-130 11 -146 8 -136 -24 9 -31 22
-38 72 -38 24 0 41 -4 38 -9 -3 -5 -54 -30 -112 -55 -89 -39 -109 -45 -122
-34 -8 7 -23 12 -33 10 -9 -2 -28 8 -41 21 -13 13 -31 26 -39 29 -8 3 -11 8
-8 12 4 4 20 -5 37 -19 38 -32 73 -33 88 -1 13 28 -6 62 -31 53 -8 -4 -15 -2
-15 3 0 6 3 10 8 10 4 0 7 16 8 35 0 22 -4 35 -12 35 -7 0 -18 9 -24 20 -6 12
-17 17 -28 14 -13 -5 -14 -4 -3 4 11 8 9 14 -8 31 -24 24 -28 43 -6 35 8 -4
15 -1 15 6 0 10 15 9 58 -7 8 -4 10 0 6 11 -4 9 -18 16 -34 16 -16 0 -32 5
-36 11 -9 15 65 2 85 -14 12 -10 12 -9 3 9 -13 24 -57 45 -87 41 -14 -1 -19 3
-17 16 2 10 -3 17 -12 17 -8 0 -19 6 -23 13 -10 17 -72 39 -86 30 -6 -4 -8 0
-4 9 3 9 0 21 -6 27 -15 15 6 14 22 -1 11 -10 13 -10 7 0 -4 7 -2 12 6 12 9 1
7 5 -4 14 -22 16 -23 36 -3 36 8 0 15 5 15 10 0 6 -7 13 -15 16 -8 4 -15 10
-15 15 0 5 7 9 15 9 8 0 15 -4 15 -10 0 -5 7 -7 15 -4 10 4 13 13 9 26 -4 13
-2 18 4 14 12 -7 62 13 62 26 0 5 -11 13 -25 18 -14 5 -25 14 -25 20 0 13 26
13 51 0 10 -6 19 -7 19 -2 0 4 -25 20 -55 35 -33 16 -55 22 -55 15 0 -6 -2 -9
-5 -6 -3 3 -3 13 1 22 6 15 9 14 39 -4 35 -22 45 -24 45 -12 0 5 -11 14 -25
20 -15 7 -23 17 -19 26 4 11 -2 14 -25 14 -17 -1 -31 -5 -31 -9 0 -4 -9 -11
-20 -14 -26 -8 -26 -25 1 -25 11 0 18 -4 14 -10 -3 -5 -12 -6 -21 -3 -8 3 -24
-3 -35 -15 -18 -20 -18 -22 -1 -32 16 -11 16 -11 -1 -6 -10 3 -21 6 -23 6 -2
0 -4 7 -4 15 0 20 -26 19 -34 -1 -5 -14 -4 -15 8 -5 24 20 27 -11 26 -250 0
-218 1 -227 20 -232 13 -3 20 0 20 9 0 17 26 19 36 2 5 -8 2 -9 -9 -5 -12 4
-17 1 -17 -9 0 -12 -6 -15 -25 -10 -24 6 -25 5 -25 -45 0 -41 5 -56 23 -72 22
-19 22 -19 1 -13 -19 6 -22 2 -26 -34 -3 -33 0 -40 14 -40 10 0 18 -4 18 -10
0 -5 -7 -7 -15 -4 -13 5 -15 -26 -15 -244 0 -138 -3 -253 -8 -255 -4 -3 -8 27
-10 66 -2 39 -7 74 -12 77 -5 3 -14 24 -19 45 l-9 40 -1 -42 c-1 -24 4 -43 9
-43 11 0 14 -73 3 -84 -12 -12 -12 -36 0 -36 7 0 5 -5 -3 -10 -8 -5 -10 -10
-5 -10 6 0 17 6 24 13 10 10 11 7 7 -16 -5 -31 0 -34 26 -10 10 9 18 11 18 5
0 -6 -4 -14 -10 -17 -5 -3 -10 -11 -10 -16 0 -6 5 -7 11 -4 5 4 19 -1 30 -11
20 -18 27 -6 8 13 -11 11 -9 12 76 28 11 2 34 4 52 4 25 1 31 5 27 16 -4 8
-17 15 -30 15 -19 0 -24 5 -24 26 0 14 4 23 10 19 6 -3 10 1 10 10 0 16 10 15
56 -2 6 -2 16 3 23 11 6 7 21 12 31 9 12 -3 20 0 20 7 0 6 -9 14 -20 17 -11 3
-20 10 -20 17 0 6 -4 4 -10 -4 -5 -8 -12 -11 -17 -7 -11 11 17 26 35 19 11 -4
13 -1 7 9 -4 8 -5 11 0 7 4 -4 14 -3 22 3 10 9 13 8 13 -1 0 -8 3 -10 7 -7 3
4 12 2 20 -4 7 -6 13 -8 13 -4 0 4 6 2 13 -4 11 -9 14 -5 15 18 0 21 -6 31
-23 39 -29 13 -41 4 -17 -14 16 -12 15 -13 -5 -14 -13 0 -24 8 -28 19 -4 15
-11 17 -38 11 -17 -4 -31 -12 -29 -18 3 -18 -38 -15 -44 3 -4 8 -15 15 -25 15
-10 0 -19 7 -19 15 0 8 9 15 20 15 25 0 25 9 3 26 -10 7 -15 15 -12 18 11 11
37 -5 44 -27 6 -22 6 -22 15 -2 6 14 9 16 10 5 1 -8 6 -3 12 13 5 15 14 27 19
27 5 0 9 5 9 12 0 6 8 20 17 30 16 18 16 18 -1 12 -16 -6 -17 -5 -5 14 14 23
28 24 44 4 6 -8 18 -13 26 -11 22 3 49 -11 49 -27 0 -8 -4 -14 -10 -14 -5 0
-10 6 -10 13 0 8 -7 14 -14 14 -11 0 -13 -5 -5 -19 5 -10 14 -18 19 -18 20 0
40 13 40 26 0 14 38 34 66 34 8 0 14 -7 14 -15 0 -9 7 -18 15 -21 8 -4 15 -14
15 -25 0 -10 6 -22 13 -26 7 -4 20 -20 30 -35 l17 -27 -43 -4 -42 -4 46 -1
c31 -1 49 -7 53 -17 3 -8 10 -15 15 -15 7 0 10 43 8 113 l-2 112 35 6 c25 4
30 8 19 13 -8 4 -28 2 -42 -3 -18 -7 -27 -7 -27 -1 0 15 45 30 90 30 67 0 65
3 62 -133 -3 -103 -1 -125 12 -136 32 -27 19 -38 -39 -33 -62 5 -135 -6 -116
-17 7 -4 42 -6 78 -3 47 3 68 1 74 -9 5 -9 40 -14 116 -16 59 -1 127 -5 151
-8 l43 -5 -3 118 -3 117 -100 6 c-55 4 -124 7 -152 8 -29 0 -53 6 -53 11 0 9
180 5 245 -5 11 -2 34 -4 50 -4 27 -1 30 -4 30 -33 1 -18 2 -66 3 -105 l2 -73
41 0 41 0 -4 100 -3 101 85 -2 85 -1 -1 -87 c-1 -47 1 -110 3 -138 l5 -53 46
-1 c54 -1 107 -17 60 -18 -15 -1 -34 -8 -42 -17 -9 -8 -20 -12 -26 -9 -5 3
-10 -3 -10 -13 0 -24 38 -36 59 -19 12 10 13 9 2 -11 -7 -13 -11 -26 -8 -28 2
-2 10 7 17 21 7 14 20 25 29 25 13 -1 13 -3 -3 -15 -10 -7 -15 -19 -11 -25 4
-6 2 -17 -4 -24 -7 -8 -10 -20 -9 -26 2 -8 -9 -13 -32 -13 -37 -1 -44 13 -28
60 6 17 4 23 -7 23 -8 0 -15 -7 -15 -16 0 -9 -6 -14 -12 -11 -7 2 -12 10 -10
16 1 6 -8 11 -20 11 -13 0 -30 5 -38 10 -12 8 -9 10 13 10 l27 0 0 164 0 164
-59 7 c-33 4 -65 4 -71 0 -8 -5 -10 -37 -8 -96 l3 -89 28 0 c15 0 27 -4 27
-10 0 -6 -32 -10 -75 -10 -41 0 -75 -4 -75 -9 0 -8 36 -12 113 -12 12 0 17 -8
17 -27 0 -44 11 -72 29 -72 13 -1 13 -2 -3 -11 -11 -7 -21 -8 -25 -2 -3 6 -16
9 -28 8 -13 -1 -23 4 -23 12 0 17 -17 17 -23 1 -4 -9 -6 -7 -6 3 -1 13 -10 16
-46 13 -28 -2 -44 0 -40 6 3 6 -1 10 -9 10 -10 0 -13 -6 -10 -15 4 -8 13 -15
21 -15 8 0 11 -5 8 -10 -4 -6 -12 -9 -18 -8 -7 1 -23 -4 -36 -11 -19 -11 -22
-11 -18 1 2 7 11 12 18 10 8 -1 5 4 -5 13 -26 19 -34 19 -32 -2 1 -16 -9 -18
-70 -14 -8 1 -12 6 -9 11 4 6 10 8 14 6 4 -3 13 -1 21 5 12 7 12 9 -3 9 -10 0
-15 4 -12 10 3 6 -1 7 -9 4 -9 -3 -16 -1 -16 4 0 6 8 13 18 15 13 4 11 5 -5 6
-14 1 -23 -5 -23 -14 0 -8 -7 -15 -15 -15 -9 0 -15 -9 -15 -25 0 -14 5 -25 10
-25 6 0 10 -5 10 -12 0 -7 -10 -3 -22 9 -18 19 -20 26 -10 47 9 19 8 24 -1 20
-7 -2 -17 4 -24 15 -11 18 -9 19 35 16 129 -6 137 -7 117 -13 -27 -9 -28 -27
-2 -28 12 0 31 -4 41 -9 12 -5 17 -5 14 1 -4 5 0 18 7 28 12 15 23 17 64 13
28 -3 51 -2 51 2 0 9 -148 20 -308 23 -50 1 -92 5 -92 10 0 4 -9 0 -19 -9 -51
-46 -64 -53 -55 -28 4 8 2 15 -4 15 -6 0 -17 3 -25 6 -8 3 -29 -8 -47 -25 -19
-17 -37 -28 -42 -25 -12 8 11 34 28 34 8 0 14 7 14 15 0 8 -4 15 -10 15 -5 0
-10 -4 -10 -10 0 -5 -6 -10 -12 -10 -7 0 -25 -7 -40 -14 -30 -16 -38 -7 -13
14 21 18 19 33 -5 27 -11 -3 -23 -1 -26 4 -3 5 2 9 11 9 12 0 15 6 10 20 -4
13 -2 20 6 20 7 0 10 2 7 5 -10 10 -36 -6 -41 -26 -3 -13 -11 -17 -21 -13 -9
3 -16 1 -16 -6 0 -6 5 -8 10 -5 6 3 10 -1 10 -10 0 -9 5 -13 10 -10 6 3 10 2
10 -3 0 -15 -51 -11 -57 4 -9 25 -20 15 -17 -16 3 -29 -10 -42 -18 -18 -3 7
-11 9 -24 4 -12 -6 -15 -10 -6 -13 6 -3 12 -12 12 -20 0 -9 6 -13 14 -10 8 3
17 0 19 -8 3 -7 -3 -15 -14 -18 -10 -3 -17 -1 -13 4 3 5 -2 9 -11 9 -8 0 -20
11 -25 25 -11 30 -25 34 -17 5 3 -11 1 -20 -4 -20 -11 0 -30 36 -22 44 3 3 1
6 -5 6 -7 0 -12 -11 -12 -25 0 -16 -6 -25 -15 -25 -13 0 -13 -4 2 -26 16 -25
16 -27 -2 -40 -10 -7 -21 -11 -26 -9 -4 3 -28 -6 -52 -19 -29 -15 -44 -19 -40
-10 3 9 -2 12 -18 9 -12 -3 -28 0 -36 6 -9 8 -13 8 -13 0 0 -6 4 -11 9 -11 5
0 12 -7 15 -16 4 -12 0 -15 -17 -12 -12 2 -21 8 -20 14 1 6 -9 10 -22 8 -27
-2 -42 10 -25 21 11 7 4 25 -10 25 -12 0 -9 -42 4 -59 9 -12 8 -12 -10 -1 -22
14 -27 38 -12 57 10 13 -24 37 -36 25 -4 -3 -4 2 0 13 5 16 4 18 -6 8 -14 -13
-5 -33 16 -33 18 0 18 -11 -2 -36 -13 -16 -15 -16 -10 -2 3 10 2 20 -3 22 -4
3 -7 -8 -7 -24 0 -21 3 -27 11 -20 14 12 41 -15 47 -45 3 -17 12 -20 60 -23
32 -2 66 2 76 7 11 6 31 7 48 2 25 -7 20 -9 -36 -15 -36 -4 -83 -9 -105 -10
l-40 -4 -2 -123 c-3 -111 -1 -122 12 -105 13 17 15 17 21 3 3 -10 13 -17 22
-17 13 0 13 -3 4 -12 -10 -10 -14 -10 -21 0 -4 7 -15 10 -24 6 -13 -5 -17 -19
-17 -65 l0 -60 353 4 c193 2 417 9 497 15 80 6 240 18 355 26 195 15 391 30
690 56 66 5 155 10 198 10 l77 0 0 -55 0 -55 -735 -3 -735 -2 737 0 737 0 -2
820 c-2 451 -5 828 -8 839 -4 10 -2 16 2 13 5 -3 9 121 9 276 0 230 -2 281
-14 285 -8 3 -11 0 -7 -7 4 -6 2 -11 -3 -11 -6 0 -11 5 -11 10 0 6 -5 10 -11
10 -6 0 -8 -7 -5 -15z m31 -25 c-3 -5 -11 -10 -16 -10 -6 0 -7 5 -4 10 3 6 11
10 16 10 6 0 7 -4 4 -10z m-157 -46 c13 -3 20 -9 17 -15 -5 -7 -11 -6 -20 1
-10 8 -19 8 -35 0 -21 -11 -44 -5 -35 10 6 9 35 11 73 4z m62 -32 c0 -4 -9 -8
-20 -9 -11 -1 -20 2 -20 8 0 5 9 9 20 9 11 0 20 -4 20 -8z m65 -2 c3 -5 2 -10
-4 -10 -5 0 -13 5 -16 10 -3 6 -2 10 4 10 5 0 13 -4 16 -10z m35 -11 c-11 -8
-12 -12 -2 -16 6 -2 12 -10 12 -16 0 -6 -7 -4 -16 5 -17 17 -12 38 9 38 7 0 6
-4 -3 -11z m-225 -29 c-3 -5 -11 -10 -16 -10 -6 0 -7 5 -4 10 3 6 11 10 16 10
6 0 7 -4 4 -10z m-191 -49 c3 -5 -5 -8 -19 -7 -14 0 -25 4 -25 9 0 10 38 9 44
-2z m66 0 c0 -9 -24 -21 -42 -21 -6 0 -6 6 2 15 14 16 40 20 40 6z m67 -7 c-3
-3 -12 -4 -19 -1 -8 3 -5 6 6 6 11 1 17 -2 13 -5z m-239 -32 c2 -7 -5 -12 -16
-12 -11 0 -22 -7 -26 -15 -7 -18 -50 -21 -43 -2 2 6 10 12 18 12 8 0 20 8 27
18 15 19 33 19 40 -1z m-188 -12 c0 -5 -7 -7 -15 -4 -8 4 -12 10 -9 15 6 11
24 2 24 -11z m290 6 c0 -3 -4 -8 -10 -11 -5 -3 -10 -1 -10 4 0 6 5 11 10 11 6
0 10 -2 10 -4z m10 -26 c0 -5 -5 -10 -11 -10 -5 0 -7 5 -4 10 3 6 8 10 11 10
2 0 4 -4 4 -10z m-316 -16 c6 2 8 1 4 -1 -11 -7 -10 -33 2 -33 5 0 7 -7 4 -15
-4 -10 -14 -13 -33 -9 -34 9 -37 12 -23 26 7 7 12 21 12 32 0 15 3 17 11 9 6
-6 17 -10 23 -9z m66 0 c0 -9 -5 -14 -12 -12 -18 6 -21 28 -4 28 9 0 16 -7 16
-16z m220 -30 c0 -2 -7 -4 -15 -4 -8 0 -15 4 -15 10 0 5 7 7 15 4 8 -4 15 -8
15 -10z m-294 -60 c-5 -12 -2 -15 11 -9 37 15 53 17 53 6 0 -6 -9 -11 -19 -11
-10 0 -21 -6 -24 -14 -7 -17 -43 -14 -39 3 1 6 -2 11 -8 11 -5 0 -7 7 -4 15 4
8 13 15 21 15 10 0 13 -6 9 -16z m-1352 -40 c14 -5 12 -34 -3 -34 -16 1 -33
19 -27 29 8 13 9 13 30 5z m1422 -16 c0 -12 -7 -23 -15 -26 -10 -3 -12 0 -8
12 4 10 7 22 7 27 0 5 4 9 9 9 4 0 8 -10 7 -22z m-1373 -44 c-7 -18 -19 -18
-26 0 -7 18 1 26 18 19 8 -2 11 -11 8 -19z m1321 2 c-3 -9 -10 -16 -15 -16 -6
0 -5 9 1 21 13 24 24 20 14 -5z m-1351 -21 c21 -29 16 -31 -18 -9 -14 9 -22
20 -19 25 8 14 18 10 37 -16z m1330 -82 c7 -34 -5 -49 -23 -28 -10 12 -10 15
1 15 9 0 7 5 -5 11 -15 9 -16 13 -5 20 22 14 26 11 32 -18z m-1363 -104 c0 -5
-4 -9 -10 -9 -5 0 -10 7 -10 16 0 8 5 12 10 9 6 -3 10 -10 10 -16z m1437 -5
c-3 -3 -12 -4 -19 -1 -8 3 -5 6 6 6 11 1 17 -2 13 -5z m663 -14 c0 -5 -5 -10
-11 -10 -5 0 -7 5 -4 10 3 6 8 10 11 10 2 0 4 -4 4 -10z m-2041 -26 c40 -8 42
-32 1 -26 -16 2 -35 10 -41 18 -13 16 -6 17 40 8z m1166 -24 c3 -5 -3 -10 -14
-10 -12 0 -21 5 -21 10 0 6 6 10 14 10 8 0 18 -4 21 -10z m-1186 -34 c9 -10 8
-15 -3 -19 -9 -4 -13 -1 -10 7 3 9 -5 11 -31 8 -21 -3 -35 0 -35 7 0 16 65 14
79 -3z m1116 -6 c-6 -20 9 -28 20 -10 3 6 13 10 21 10 36 0 -50 -51 -166 -100
-69 -29 -173 -72 -233 -97 -65 -27 -104 -49 -100 -56 4 -6 -2 -8 -16 -4 -14 3
-59 -10 -124 -39 -56 -24 -104 -44 -107 -44 -2 0 12 14 33 31 23 19 36 37 33
46 -3 8 2 16 12 19 9 4 31 12 47 19 27 12 252 103 480 195 44 18 84 37 90 41
14 14 17 11 10 -11z m-1065 0 c8 -5 11 -13 6 -17 -5 -4 -11 -2 -13 5 -3 6 -9
10 -14 6 -5 -3 -9 0 -9 5 0 13 10 14 30 1z m-110 -20 c0 -5 -5 -10 -11 -10 -5
0 -7 5 -4 10 3 6 8 10 11 10 2 0 4 -4 4 -10z m35 -10 c3 -5 -1 -10 -10 -10 -9
0 -13 5 -10 10 3 6 8 10 10 10 2 0 7 -4 10 -10z m70 -10 c3 -5 1 -10 -4 -10
-6 0 -11 5 -11 10 0 6 2 10 4 10 3 0 8 -4 11 -10z m1165 1 c0 -5 -7 -11 -15
-15 -15 -5 -20 5 -8 17 9 10 23 9 23 -2z m-1194 -32 c3 -6 14 -9 23 -6 12 3
21 -4 28 -24 9 -23 8 -28 -9 -32 -15 -4 -18 -1 -13 14 4 10 3 19 -2 19 -13 1
-59 40 -46 40 6 0 15 -5 19 -11z m1484 1 c0 -5 -5 -10 -11 -10 -5 0 -7 5 -4
10 3 6 8 10 11 10 2 0 4 -4 4 -10z m350 -14 c0 -3 -4 -8 -10 -11 -5 -3 -10 -1
-10 4 0 6 5 11 10 11 6 0 10 -2 10 -4z m200 -6 c0 -5 -4 -10 -10 -10 -5 0 -10
5 -10 10 0 6 5 10 10 10 6 0 10 -4 10 -10z m-155 -10 c-3 -5 -11 -10 -16 -10
-6 0 -7 5 -4 10 3 6 11 10 16 10 6 0 7 -4 4 -10z m-179 -26 c-24 -17 -37 -18
-30 -1 2 7 15 13 27 14 21 2 21 1 3 -13z m-586 -4 c0 -5 -8 -10 -17 -10 -15 0
-16 2 -3 10 19 12 20 12 20 0z m524 -15 c-4 -8 -13 -15 -21 -15 -13 0 -13 3
-3 15 7 8 16 15 21 15 5 0 6 -7 3 -15z m-576 -3 c29 -1 42 -6 42 -17 0 -11
-11 -14 -47 -11 -27 2 -60 7 -74 11 -35 9 -39 0 -32 -69 l6 -58 44 6 c32 4 42
3 37 -6 -5 -8 2 -9 25 -5 18 4 41 3 51 -3 9 -5 20 -7 24 -3 8 8 -41 33 -68 34
-20 0 -20 1 3 12 19 9 26 8 36 -6 18 -25 25 -21 25 18 0 28 4 35 20 35 11 0
20 -6 20 -14 0 -8 14 -21 30 -30 29 -14 30 -14 30 9 0 43 18 36 24 -10 4 -25
12 -45 18 -45 6 0 20 -8 31 -17 15 -15 19 -15 17 -3 -1 8 -2 22 -1 30 1 12 4
12 15 -3 8 -10 12 -27 9 -37 -3 -11 -1 -20 5 -20 6 0 18 -7 27 -16 13 -14 18
-14 33 -2 15 12 16 11 3 -5 -9 -11 -21 -15 -34 -11 -11 3 -22 2 -26 -3 -3 -5
-41 -6 -91 -2 -47 4 -155 12 -240 18 -85 6 -189 16 -230 22 -41 6 -79 9 -85 8
-20 -5 -115 13 -115 23 0 5 4 7 9 4 16 -11 41 6 41 27 0 18 2 18 25 -7 13 -14
33 -26 45 -26 16 0 20 6 20 33 0 17 3 43 7 55 8 31 23 9 23 -35 0 -49 9 -63
41 -63 l29 0 0 80 c0 44 4 80 9 80 5 0 13 -35 17 -77 4 -43 9 -72 11 -65 3 6
10 9 16 6 8 -5 8 -2 0 7 -17 18 -16 32 1 26 10 -4 13 -1 9 9 -3 7 -1 14 5 14
6 0 13 -6 15 -12 3 -7 6 14 6 48 1 33 3 63 6 66 5 5 29 5 133 0z m702 4 c0
-11 -19 -15 -25 -6 -3 5 1 10 9 10 9 0 16 -2 16 -4z m80 -16 c0 -5 -8 -10 -17
-10 -15 0 -16 2 -3 10 19 12 20 12 20 0z m-1884 -42 c5 -8 2 -9 -12 -4 -10 5
-25 9 -31 9 -14 0 -17 10 -7 20 8 8 40 -8 50 -25z m1627 13 c3 -14 0 -17 -14
-14 -15 4 -17 8 -8 19 15 18 16 18 22 -5z m-1588 -11 c3 -5 1 -10 -4 -10 -6 0
-11 5 -11 10 0 6 2 10 4 10 3 0 8 -4 11 -10z m361 3 c-15 -4 -16 -7 -5 -15 12
-8 12 -9 0 -6 -25 7 -24 28 1 27 19 -1 20 -2 4 -6z m129 -13 c4 -7 -13 -10
-49 -8 -31 2 -56 6 -56 11 0 11 98 8 105 -3z m605 6 c0 -3 -4 -8 -10 -11 -5
-3 -10 -1 -10 4 0 6 5 11 10 11 6 0 10 -2 10 -4z m-1143 -58 c3 -17 1 -19 -11
-9 -8 7 -12 19 -9 27 7 18 16 10 20 -18z m1823 28 c0 -3 -4 -8 -10 -11 -5 -3
-10 -1 -10 4 0 6 5 11 10 11 6 0 10 -2 10 -4z m90 -16 c0 -5 -2 -10 -4 -10 -3
0 -8 5 -11 10 -3 6 -1 10 4 10 6 0 11 -4 11 -10z m-1828 -22 c-7 -7 -12 -8
-12 -2 0 14 12 26 19 19 2 -3 -1 -11 -7 -17z m788 -29 c0 -5 -9 -9 -20 -9 -17
0 -19 2 -8 14 13 14 28 12 28 -5z m1185 -77 c-6 -6 -65 57 -65 70 0 5 16 -7
35 -28 19 -20 33 -39 30 -42z m-1675 58 c0 -5 -5 -10 -11 -10 -5 0 -7 5 -4 10
3 6 8 10 11 10 2 0 4 -4 4 -10z m155 -20 c-3 -5 -11 -10 -16 -10 -6 0 -7 5 -4
10 3 6 11 10 16 10 6 0 7 -4 4 -10z m-436 -27 c38 -34 38 -38 4 -41 -21 -1
-24 1 -14 7 12 8 9 12 -15 22 -38 17 -37 16 -29 28 10 17 20 13 54 -16z m106
16 c11 -17 -1 -21 -15 -4 -8 9 -8 15 -2 15 6 0 14 -5 17 -11z m30 1 c3 -5 1
-10 -4 -10 -6 0 -11 5 -11 10 0 6 2 10 4 10 3 0 8 -4 11 -10z m493 -4 c46 -3
94 -8 105 -11 12 -3 119 -11 237 -20 291 -20 310 -23 310 -48 0 -16 3 -17 15
-7 8 7 13 15 11 19 -3 4 4 7 15 7 25 0 23 -7 -10 -33 l-27 -21 -195 13 c-107
8 -286 22 -399 31 l-205 16 -77 -30 -78 -30 0 33 c0 31 3 34 63 56 54 21 132
38 147 33 3 -1 43 -5 88 -8z m1085 -1 c-3 -9 -8 -14 -10 -11 -3 3 -2 9 2 15 9
16 15 13 8 -4z m-1314 0 c-5 -5 -149 -65 -155 -65 -2 0 -4 4 -4 8 0 5 15 14
33 20 17 6 50 17 72 26 41 15 62 20 54 11z m1098 -21 c-9 -9 -28 6 -21 18 4 6
10 6 17 -1 6 -6 8 -13 4 -17z m123 16 c8 -5 12 -12 9 -15 -8 -8 -39 5 -39 16
0 11 11 11 30 -1z m130 0 c0 -5 -4 -10 -10 -10 -5 0 -10 5 -10 10 0 6 5 10 10
10 6 0 10 -4 10 -10z m-1845 -10 c3 -5 1 -10 -4 -10 -6 0 -11 5 -11 10 0 6 2
10 4 10 3 0 8 -4 11 -10z m185 -4 c0 -3 -4 -8 -10 -11 -5 -3 -10 -1 -10 4 0 6
5 11 10 11 6 0 10 -2 10 -4z m1685 -6 c3 -5 -1 -10 -10 -10 -9 0 -13 5 -10 10
3 6 8 10 10 10 2 0 7 -4 10 -10z m220 0 c3 -5 2 -10 -4 -10 -5 0 -13 5 -16 10
-3 6 -2 10 4 10 5 0 13 -4 16 -10z m-415 -10 c0 -5 -7 -10 -15 -10 -8 0 -15 5
-15 10 0 6 7 10 15 10 8 0 15 -4 15 -10z m-1405 -30 c1 -10 -2 -17 -7 -14 -4
3 -8 15 -8 26 0 26 13 15 15 -12z m-205 10 c0 -5 -7 -7 -15 -4 -8 4 -15 8 -15
10 0 2 7 4 15 4 8 0 15 -4 15 -10z m1754 -22 c6 -4 7 -10 3 -14 -10 -10 -37
28 -29 40 3 6 8 3 10 -4 3 -8 10 -18 16 -22z m76 11 c0 -18 -2 -19 -15 -9 -10
9 -15 9 -15 1 0 -6 -7 -11 -16 -11 -24 0 6 27 44 39 1 1 2 -9 2 -20z m-1907
-9 c3 -12 0 -20 -7 -20 -6 0 -12 9 -13 20 -1 11 2 20 6 20 5 0 11 -9 14 -20z
m43 -8 c-4 -3 -14 2 -24 12 -16 18 -16 18 6 6 13 -6 21 -14 18 -18z m1604 -23
c0 -6 -4 -7 -10 -4 -5 3 -10 11 -10 16 0 6 5 7 10 4 6 -3 10 -11 10 -16z m370
2 c0 -6 -4 -13 -10 -16 -5 -3 -10 1 -10 9 0 9 5 16 10 16 6 0 10 -4 10 -9z
m-430 -11 c0 -5 -4 -10 -10 -10 -5 0 -10 5 -10 10 0 6 5 10 10 10 6 0 10 -4
10 -10z m180 -8 c0 -13 -12 -22 -22 -16 -10 6 -1 24 13 24 5 0 9 -4 9 -8z
m323 1 c-7 -2 -19 -2 -25 0 -7 3 -2 5 12 5 14 0 19 -2 13 -5z m-598 -23 c3 -5
1 -10 -4 -10 -6 0 -11 5 -11 10 0 6 2 10 4 10 3 0 8 -4 11 -10z m39 -15 c-4
-8 -1 -21 5 -29 6 -7 8 -16 4 -19 -6 -7 20 -11 46 -7 13 1 13 -1 1 -15 -9 -11
-15 -13 -20 -5 -4 7 -9 1 -12 -14 -3 -14 0 -30 7 -36 6 -5 10 -22 7 -38 -2
-18 2 -35 12 -45 9 -8 16 -18 16 -21 0 -12 -59 -6 -63 7 -4 8 -8 9 -14 1 -4
-6 -30 -14 -57 -17 -43 -6 -47 -5 -40 11 5 9 10 55 11 102 4 98 10 122 22 101
13 -21 61 -6 61 19 0 11 4 20 10 20 5 0 7 -7 4 -15z m86 5 c0 -5 -4 -10 -10
-10 -5 0 -10 5 -10 10 0 6 5 10 10 10 6 0 10 -4 10 -10z m175 0 c3 -5 1 -10
-4 -10 -6 0 -11 5 -11 10 0 6 2 10 4 10 3 0 8 -4 11 -10z m-1669 -58 c-4 -3
-14 2 -24 12 -16 18 -16 18 6 6 13 -6 21 -14 18 -18z m604 8 c0 -5 -2 -10 -4
-10 -3 0 -8 5 -11 10 -3 6 -1 10 4 10 6 0 11 -4 11 -10z m60 6 c0 -3 -4 -8
-10 -11 -5 -3 -10 -1 -10 4 0 6 5 11 10 11 6 0 10 -2 10 -4z m940 -17 c0 -5
-7 -9 -15 -9 -8 0 -15 7 -15 15 0 9 6 12 15 9 8 -4 15 -10 15 -15z m-1650 -39
c13 -8 12 -10 -3 -10 -17 0 -18 -6 -13 -54 4 -44 2 -54 -9 -50 -7 3 -16 12
-19 21 -4 8 -13 13 -21 9 -8 -3 -15 -1 -15 4 0 5 -9 12 -20 15 -11 3 -20 11
-20 16 0 6 9 5 23 -2 21 -11 21 -11 -3 16 -15 17 -19 26 -10 23 9 -3 29 0 45
7 37 17 46 17 65 5z m860 0 c0 -5 -4 -10 -10 -10 -5 0 -10 5 -10 10 0 6 5 10
10 10 6 0 10 -4 10 -10z m888 -80 c0 -25 -2 -38 -6 -30 -4 8 -13 16 -20 18 -9
1 -8 -5 4 -23 24 -37 10 -42 -16 -5 -12 16 -26 28 -30 25 -10 -6 -3 -15 55
-77 19 -21 35 -42 35 -48 0 -5 4 -10 8 -10 5 0 7 13 4 29 -5 33 12 48 33 31
12 -10 15 -9 15 4 0 9 -3 16 -7 16 -5 0 -15 13 -24 28 -15 27 -15 30 0 41 9 6
10 9 4 6 -8 -4 -13 0 -13 9 0 26 17 18 39 -19 11 -19 26 -34 33 -33 7 2 12 -4
10 -14 -2 -13 7 -17 40 -18 102 -4 118 -5 118 -12 0 -9 -24 -11 -102 -8 -73 2
-78 -18 -6 -22 56 -3 72 -20 36 -39 -19 -9 -21 -9 -10 2 6 7 12 15 12 18 0 4
-36 6 -80 6 l-80 0 6 -30 c8 -33 12 -302 6 -323 -8 -23 -31 22 -28 52 2 18 -2
30 -13 34 -33 14 -103 66 -93 70 6 2 30 -11 53 -27 54 -40 92 -43 54 -4 -14
14 -14 16 1 28 14 10 16 21 9 61 -4 27 -7 59 -6 72 1 20 -13 28 -41 23 -5 0
-8 3 -8 9 0 5 -7 7 -15 4 -8 -4 -15 -1 -15 6 0 6 4 9 9 6 5 -3 15 2 22 11 13
14 11 16 -13 11 -17 -3 -28 -1 -29 6 0 6 -4 1 -9 -11 -6 -13 -18 -23 -30 -23
-11 0 -20 -4 -20 -10 0 -16 -46 -12 -60 5 -8 9 -9 15 -2 15 6 0 14 -4 17 -10
4 -6 11 -5 19 3 20 18 1 27 -57 27 -30 0 -46 4 -42 10 3 6 19 10 34 10 l29 0
-14 38 c-16 46 -19 85 -4 62 5 -8 10 -10 10 -5 0 6 -5 16 -11 22 -16 16 -4 43
18 42 17 -1 17 -2 1 -6 -27 -7 -22 -23 7 -23 16 0 25 -6 25 -16 0 -14 -3 -14
-15 -4 -13 11 -15 7 -15 -23 0 -20 5 -39 10 -42 7 -4 8 3 4 21 -5 19 -4 25 5
20 6 -4 11 -18 11 -32 0 -24 14 -32 25 -14 3 6 2 10 -3 10 -5 0 -8 22 -8 50 1
52 16 70 42 49 9 -7 14 -8 14 -1 0 5 8 8 19 5 13 -3 20 2 26 19 l7 23 8 -25
c4 -14 8 -45 8 -70z m-1098 60 c0 -5 -4 -10 -10 -10 -5 0 -10 5 -10 10 0 6 5
10 10 10 6 0 10 -4 10 -10z m60 -30 c0 -5 -5 -10 -11 -10 -5 0 -7 5 -4 10 3 6
8 10 11 10 2 0 4 -4 4 -10z m830 -10 c0 -5 -4 -10 -10 -10 -5 0 -10 5 -10 10
0 6 5 10 10 10 6 0 10 -4 10 -10z m-1517 -7 c-7 -2 -19 -2 -25 0 -7 3 -2 5 12
5 14 0 19 -2 13 -5z m24 -35 c2 -15 -1 -16 -18 -5 -24 15 -24 23 -1 23 10 0
19 -8 19 -18z m1973 -10 c0 -5 -9 -8 -19 -8 -21 0 -37 17 -26 28 3 3 10 0 15
-8 8 -12 10 -11 10 5 0 17 2 17 10 5 5 -8 10 -18 10 -22z m-1310 7 c0 -8 -4
-15 -10 -15 -5 0 -7 7 -4 15 4 8 8 15 10 15 2 0 4 -7 4 -15z m-660 -35 c0 -5
-2 -10 -4 -10 -3 0 -8 5 -11 10 -3 6 -1 10 4 10 6 0 11 -4 11 -10z m1445 -20
c-3 -6 1 -7 9 -4 9 3 16 1 16 -4 0 -17 -41 -26 -51 -11 -7 12 -9 11 -9 0 0
-12 -3 -12 -12 -3 -10 10 -10 15 2 22 20 13 53 13 45 0z m-105 -21 c0 -5 -4
-9 -10 -9 -5 0 -10 7 -10 16 0 8 5 12 10 9 6 -3 10 -10 10 -16z m-758 -19 c-5
-13 -3 -13 14 -1 18 14 18 14 3 -2 -18 -21 -96 -37 -85 -18 5 7 16 9 29 5 19
-6 20 -5 10 8 -15 18 -11 24 15 24 14 0 18 -5 14 -16z m759 -5 c11 6 12 5 2
-5 -10 -11 -15 -11 -28 0 -8 7 -15 17 -15 23 0 6 6 3 13 -8 9 -11 19 -15 28
-10z m-1556 -15 c-6 -9 -9 -9 -16 1 -10 17 0 34 13 21 6 -6 7 -16 3 -22z
m1050 10 c-3 -5 -10 -10 -16 -10 -5 0 -9 5 -9 10 0 6 7 10 16 10 8 0 12 -4 9
-10z m-210 -20 c-4 -11 -2 -20 4 -20 16 0 13 -16 -4 -34 -14 -14 -18 -13 -40
6 -14 12 -25 26 -25 31 0 6 3 8 6 5 3 -4 14 2 25 13 25 25 42 24 34 -1z m855
10 c0 -5 -4 -10 -10 -10 -5 0 -10 5 -10 10 0 6 5 10 10 10 6 0 10 -4 10 -10z
m-1552 -16 c39 -4 38 -14 -1 -15 -20 -1 -43 -2 -49 -3 -7 -1 -14 7 -16 17 -3
16 0 18 20 11 12 -4 34 -8 46 -10z m1392 -9 c0 -17 -31 -28 -44 -15 -7 7 -4
14 9 24 22 16 35 12 35 -9z m560 16 c0 -10 -96 -8 -107 2 -3 4 19 7 50 7 32 0
57 -4 57 -9z m-1175 -31 c-3 -5 -11 -10 -16 -10 -6 0 -7 5 -4 10 3 6 11 10 16
10 6 0 7 -4 4 -10z m-312 -34 c4 -10 0 -12 -15 -8 -15 4 -17 7 -6 13 17 11 15
11 21 -5z m477 -10 c0 -3 -4 -8 -10 -11 -5 -3 -10 -1 -10 4 0 6 5 11 10 11 6
0 10 -2 10 -4z m-226 -22 c4 -9 5 -19 2 -21 -7 -7 -46 17 -46 27 0 17 37 11
44 -6z m-239 -14 c3 -5 1 -10 -4 -10 -6 0 -11 5 -11 10 0 6 2 10 4 10 3 0 8
-4 11 -10z m-55 -16 c0 -2 -9 -4 -20 -4 -11 0 -20 4 -20 9 0 5 9 7 20 4 11 -3
20 -7 20 -9z m295 -14 c3 -5 2 -10 -4 -10 -5 0 -13 5 -16 10 -3 6 -2 10 4 10
5 0 13 -4 16 -10z m-685 -29 c0 -4 -7 -8 -15 -8 -16 0 -20 9 -9 20 8 8 24 -1
24 -12z m605 -11 c3 -5 2 -10 -4 -10 -5 0 -13 5 -16 10 -3 6 -2 10 4 10 5 0
13 -4 16 -10z m40 0 c3 -5 2 -10 -4 -10 -5 0 -13 5 -16 10 -3 6 -2 10 4 10 5
0 13 -4 16 -10z m92 4 c-3 -3 -12 -4 -19 -1 -8 3 -5 6 6 6 11 1 17 -2 13 -5z
m75 -3 c4 -1 5 -8 2 -16 -4 -8 -1 -15 5 -15 6 0 11 8 11 18 0 13 9 17 40 18
22 1 37 -2 34 -7 -6 -11 9 -12 20 -2 10 11 37 12 30 2 -6 -11 9 -12 20 -2 4 4
18 9 31 10 18 3 25 -1 25 -14 0 -16 1 -16 13 1 12 16 18 17 70 5 50 -12 54
-15 35 -23 -21 -8 -22 -9 -4 -14 11 -2 25 3 31 12 16 21 20 20 22 -3 1 -11 -6
-21 -19 -24 -27 -7 -70 13 -64 30 7 17 -10 17 -18 1 -5 -10 -7 -10 -12 0 -8
17 -24 15 -24 -2 0 -9 12 -16 28 -18 19 -2 27 -8 26 -21 -2 -15 4 -16 34 -11
25 5 33 4 28 -5 -9 -14 28 -15 52 -2 10 5 33 6 52 1 19 -4 29 -8 22 -9 -7 -1
-10 -6 -7 -11 9 -15 -2 -12 -30 6 -15 10 -25 12 -25 5 0 -6 5 -11 11 -11 5 0
7 -5 4 -10 -4 -6 7 -13 24 -16 37 -8 40 -19 6 -22 -19 -1 -29 5 -37 23 -12 26
-23 31 -33 15 -3 -5 -19 -10 -36 -10 -16 0 -29 -4 -29 -10 0 -5 -4 -10 -10
-10 -5 0 -10 6 -10 13 0 9 -16 12 -50 12 -28 0 -50 4 -50 10 0 5 -4 4 -9 -3
-6 -10 -10 -10 -21 3 -7 8 -9 15 -5 15 5 0 0 9 -10 20 -14 15 -15 20 -4 20 12
0 12 2 0 9 -7 5 -22 6 -34 3 -14 -3 -18 -1 -13 6 9 15 -13 16 -48 2 -16 -6
-27 -6 -31 0 -4 6 -13 4 -21 -5 -17 -17 -34 -12 -34 11 0 17 -17 19 -23 2 -3
-10 -7 -10 -17 -1 -7 6 -10 15 -7 20 5 8 15 9 59 4z m-352 -8 c-19 -3 -39 -9
-44 -14 -6 -5 -25 -9 -43 -9 -18 0 -33 -5 -33 -11 0 -5 5 -7 10 -4 6 3 10 2
10 -3 0 -16 -30 -23 -65 -16 l-32 6 22 24 c21 22 28 24 73 18 32 -4 52 -2 56
5 4 6 24 10 44 9 l37 -1 -35 -4z m115 -3 c3 -5 -1 -10 -9 -10 -9 0 -16 5 -16
10 0 6 4 10 9 10 6 0 13 -4 16 -10z m1394 -32 c36 -29 47 -44 39 -50 -18 -11
-30 -10 -23 2 6 9 -20 35 -74 77 -9 7 -11 13 -5 13 6 0 34 -19 63 -42z m-1810
23 c8 -5 -5 -7 -35 -4 -27 3 -51 7 -53 9 -9 8 75 3 88 -5z m121 -1 c0 -5 -11
-10 -25 -10 -14 0 -25 5 -25 10 0 6 11 10 25 10 14 0 25 -4 25 -10z m186 -9
c-6 -9 -56 -22 -56 -14 0 4 40 21 53 22 5 1 6 -3 3 -8z m60 -9 c-10 -2 -22 0
-28 6 -6 6 0 7 19 4 21 -5 23 -7 9 -10z m161 -2 c-6 -11 -13 -16 -15 -10 -2 5
-12 10 -23 10 -34 0 -20 17 16 18 32 1 34 0 22 -18z m72 -23 c0 -21 -1 -21 -9
-2 -12 28 -12 37 0 30 6 -3 10 -16 9 -28z m161 23 c0 -5 -5 -10 -11 -10 -5 0
-7 5 -4 10 3 6 8 10 11 10 2 0 4 -4 4 -10z m-45 -20 c8 -13 -5 -13 -25 0 -13
8 -13 10 2 10 9 0 20 -4 23 -10z m-461 -8 c2 -4 -5 -9 -17 -9 -17 -2 -19 0 -7
7 18 12 18 12 24 2z m496 -22 c0 -5 -2 -10 -4 -10 -3 0 -8 5 -11 10 -3 6 -1
10 4 10 6 0 11 -4 11 -10z m-97 -14 c6 -16 -40 -19 -50 -3 -4 6 0 8 10 4 9 -3
19 -2 22 3 8 13 12 12 18 -4z m47 10 c0 -2 -7 -6 -15 -10 -8 -3 -15 -1 -15 4
0 6 7 10 15 10 8 0 15 -2 15 -4z m-132 -15 c10 -6 7 -10 -12 -13 -25 -5 -33 1
-19 15 8 9 15 9 31 -2z m-68 -11 c0 -10 -77 -6 -87 4 -4 3 15 6 40 6 26 0 47
-4 47 -10z m430 -9 c0 -5 -7 -11 -15 -15 -9 -3 -15 0 -15 9 0 8 7 15 15 15 8
0 15 -4 15 -9z m-220 -10 c0 -5 -9 -7 -20 -4 -11 3 -20 7 -20 9 0 2 9 4 20 4
11 0 20 -4 20 -9z m956 -69 c-12 -11 -16 6 -9 39 l8 34 3 -33 c2 -19 1 -36 -2
-40z m114 52 c0 -8 -4 -12 -10 -9 -5 3 -10 10 -10 16 0 5 5 9 10 9 6 0 10 -7
10 -16z m80 6 c0 -5 -6 -10 -12 -11 -10 0 -10 -2 0 -6 16 -6 15 -20 -3 -27
-19 -7 -47 3 -39 15 3 5 10 6 16 3 7 -5 9 -2 5 8 -3 9 -3 19 0 22 10 10 33 7
33 -4z m-625 -20 c3 -5 1 -10 -4 -10 -6 0 -11 5 -11 10 0 6 2 10 4 10 3 0 8
-4 11 -10z m-939 -25 c-3 -9 -10 -13 -16 -10 -6 4 -5 11 3 20 15 16 22 11 13
-10z m364 15 c0 -5 -2 -10 -4 -10 -3 0 -8 5 -11 10 -3 6 -1 10 4 10 6 0 11 -4
11 -10z m465 0 c3 -5 2 -10 -4 -10 -5 0 -13 5 -16 10 -3 6 -2 10 4 10 5 0 13
-4 16 -10z m515 0 c0 -5 -5 -10 -11 -10 -5 0 -7 5 -4 10 3 6 8 10 11 10 2 0 4
-4 4 -10z m-1533 -22 c-3 -8 -6 -5 -6 6 -1 11 2 17 5 13 3 -3 4 -12 1 -19z
m923 12 c0 -5 -6 -10 -14 -10 -8 0 -18 5 -21 10 -3 6 3 10 14 10 12 0 21 -4
21 -10z m730 2 c0 -5 -7 -9 -15 -9 -8 0 -15 4 -15 9 0 4 7 8 15 8 8 0 15 -4
15 -8z m-1570 -12 c0 -5 -4 -10 -10 -10 -5 0 -10 5 -10 10 0 6 5 10 10 10 6 0
10 -4 10 -10z m1400 -1 c0 -11 -43 -19 -110 -19 -36 -1 -99 -5 -140 -10 -116
-15 -472 -41 -478 -35 -3 3 3 5 14 5 11 0 28 6 39 14 14 9 85 17 220 25 110 7
203 15 207 19 9 9 248 9 248 1z m-1506 -14 c-4 -8 -8 -15 -10 -15 -2 0 -4 7
-4 15 0 8 4 15 10 15 5 0 7 -7 4 -15z m631 -46 c4 -6 5 -13 2 -16 -3 -3 -75
-7 -159 -9 -84 -3 -182 -9 -218 -14 -107 -15 -173 -15 -178 -2 -2 7 -9 9 -15
6 -8 -5 -8 -2 1 7 9 10 15 10 23 2 9 -9 15 -8 26 3 11 10 44 14 131 15 64 1
151 5 192 9 119 11 188 11 195 -1z m602 5 c-3 -3 -12 -4 -19 -1 -8 3 -5 6 6 6
11 1 17 -2 13 -5z m-1210 -39 c0 -17 3 -16 -60 -20 -27 -2 -55 -6 -62 -9 -8
-3 -17 -1 -20 5 -8 11 9 18 71 29 71 11 71 11 71 -5z m1158 5 c3 -5 2 -10 -4
-10 -5 0 -13 5 -16 10 -3 6 -2 10 4 10 5 0 13 -4 16 -10z m-1320 -19 c-14 -12
-95 -21 -95 -11 0 8 27 14 85 18 11 1 15 -2 10 -7z m-111 -13 c-6 -10 -64 -7
-64 3 0 4 15 7 34 6 19 0 32 -5 30 -9z m-69 -48 c4 -6 -7 -10 -27 -10 -25 0
-29 3 -18 10 19 13 37 13 45 0z"/>
<path d="M1245 1350 c-3 -5 -1 -10 4 -10 6 0 11 5 11 10 0 6 -2 10 -4 10 -3 0
-8 -4 -11 -10z"/>
<path d="M852 1260 c0 -14 2 -19 5 -12 2 6 2 18 0 25 -3 6 -5 1 -5 -13z"/>
<path d="M917 1274 c-10 -11 -8 -24 4 -24 5 0 7 5 4 10 -3 6 -2 10 4 10 5 0
12 -5 14 -10 3 -6 4 -5 3 2 -3 14 -20 21 -29 12z"/>
<path d="M1008 1263 c18 -2 45 -2 60 0 15 2 0 4 -33 4 -33 0 -45 -2 -27 -4z"/>
<path d="M792 1248 c-15 -15 -15 -28 0 -28 6 0 8 3 4 7 -3 4 4 13 16 20 15 8
18 12 8 13 -9 0 -21 -5 -28 -12z"/>
<path d="M1168 1253 c7 -3 16 -2 19 1 4 3 -2 6 -13 5 -11 0 -14 -3 -6 -6z"/>
<path d="M741 1231 c-7 -5 -12 -13 -10 -18 2 -5 12 -1 22 9 18 19 12 24 -12 9z"/>
<path d="M1368 1233 c7 -3 16 -2 19 1 4 3 -2 6 -13 5 -11 0 -14 -3 -6 -6z"/>
<path d="M1800 1035 c-7 -8 -8 -15 -2 -15 5 0 15 7 22 15 7 8 8 15 2 15 -5 0
-15 -7 -22 -15z"/>
<path d="M290 1009 c-11 -8 -12 -12 -2 -16 6 -2 10 -9 7 -13 -3 -5 -1 -11 4
-14 5 -3 11 8 13 24 5 32 1 36 -22 19z"/>
<path d="M1982 871 l-32 -19 26 -5 c20 -3 28 0 31 14 3 11 10 19 15 19 6 0 8
-7 4 -15 -3 -8 -1 -15 3 -15 5 0 12 6 14 13 4 10 6 10 6 0 1 -7 9 -13 19 -13
14 1 13 4 -7 20 -28 24 -37 24 -79 1z"/>
<path d="M2005 830 c-3 -5 -1 -10 4 -10 6 0 11 5 11 10 0 6 -2 10 -4 10 -3 0
-8 -4 -11 -10z"/>
<path d="M1002 774 c1 -9 9 -19 16 -22 9 -3 13 2 10 14 -1 9 -9 19 -16 22 -9
3 -13 -2 -10 -14z"/>
<path d="M1240 610 c-13 -8 -12 -10 3 -10 9 0 17 5 17 10 0 12 -1 12 -20 0z"/>
<path d="M1370 562 c0 -4 9 -13 20 -20 22 -13 27 -3 8 16 -14 14 -28 16 -28 4z"/>
<path d="M1420 545 c0 -9 9 -15 25 -15 16 0 25 6 25 15 0 9 -9 15 -25 15 -16
0 -25 -6 -25 -15z"/>
<path d="M679 582 c9 -7 10 -11 2 -15 -7 -4 -8 -5 0 -3 15 2 13 20 -3 24 -10
3 -10 2 1 -6z"/>
<path d="M765 330 c-3 -5 -1 -10 4 -10 6 0 11 5 11 10 0 6 -2 10 -4 10 -3 0
-8 -4 -11 -10z"/>
<path d="M2035 2401 c-4 -13 -12 -18 -21 -14 -13 5 -13 7 -2 14 9 6 9 9 1 9
-19 0 -27 -21 -12 -31 8 -5 17 -9 21 -9 10 0 31 40 25 47 -3 2 -8 -5 -12 -16z"/>
<path d="M2060 2405 c0 -8 2 -15 4 -15 2 0 6 7 10 15 3 8 1 15 -4 15 -6 0 -10
-7 -10 -15z"/>
<path d="M2233 2404 c0 -10 4 -11 13 -3 8 7 14 6 17 -1 3 -6 5 -6 3 1 -3 17
-33 20 -33 3z"/>
<path d="M1736 2358 c-9 -36 -7 -41 9 -28 12 10 15 10 15 0 0 -22 13 -1 16 25
3 33 -31 35 -40 3z"/>
<path d="M1814 2364 c-16 -13 -16 -15 -2 -10 23 7 33 -11 18 -29 -10 -12 -10
-15 1 -16 8 0 30 -2 49 -4 34 -3 34 -2 13 12 -22 15 -34 41 -13 28 6 -3 10 -2
10 4 0 10 -31 31 -47 31 -5 0 -18 -7 -29 -16z"/>
<path d="M550 2230 c0 -47 4 -80 10 -80 6 0 10 25 10 56 l0 56 30 -4 c36 -5
45 4 30 32 -8 14 -21 20 -45 20 l-35 0 0 -80z"/>
<path d="M650 2229 c0 -60 3 -80 13 -76 8 3 11 21 10 51 -3 57 10 53 28 -9 7
-25 19 -45 26 -45 16 0 16 1 -3 50 -14 34 -15 45 -4 65 17 31 6 45 -36 45
l-34 0 0 -81z"/>
<path d="M760 2230 c0 -47 4 -80 10 -80 6 0 10 33 10 80 0 47 -4 80 -10 80 -6
0 -10 -33 -10 -80z"/>
<path d="M809 2306 c0 -3 0 -39 -1 -78 l0 -73 36 0 c41 0 50 18 11 23 -22 3
-25 8 -25 44 0 39 1 40 30 36 28 -4 30 -2 27 21 -3 22 -9 26 -40 29 -20 2 -37
1 -38 -2z"/>
<path d="M910 2230 c0 -47 4 -80 10 -80 6 0 10 26 10 58 l0 57 20 -25 c11 -14
20 -41 20 -62 0 -27 4 -38 15 -38 12 0 15 16 15 85 0 67 -3 85 -14 85 -8 0
-16 -12 -18 -27 l-4 -28 -14 28 c-26 52 -40 34 -40 -53z"/>
<path d="M1020 2230 l0 -81 28 15 c58 30 83 82 58 121 -12 19 -25 25 -51 25
l-35 0 0 -80z m54 54 c9 -3 16 -16 16 -28 0 -22 -25 -66 -38 -66 -5 0 -7 79
-3 98 1 3 8 2 25 -4z"/>
<path d="M1147 2304 c-14 -14 -7 -41 18 -64 14 -13 25 -31 25 -41 0 -21 -24
-31 -38 -17 -11 11 -32 3 -32 -12 0 -5 14 -11 31 -15 22 -5 36 -2 50 11 27 24
24 48 -13 89 -21 24 -26 36 -15 33 8 -1 17 2 19 7 4 12 -35 19 -45 9z"/>
<path d="M1280 2288 c-46 -49 0 -152 59 -133 51 16 63 108 18 140 -30 21 -53
19 -77 -7z m61 -8 c24 -13 26 -72 3 -94 -37 -37 -81 32 -50 79 19 28 20 29 47
15z"/>
<path d="M1400 2230 c0 -64 3 -80 15 -80 12 0 15 13 15 56 l0 56 30 -4 c32 -5
33 -4 24 30 -5 18 -13 22 -45 22 l-39 0 0 -80z"/>
<path d="M1736 2294 c-4 -10 -1 -14 6 -12 15 5 23 28 10 28 -5 0 -13 -7 -16
-16z"/>
<path d="M620 1995 c0 -53 4 -75 13 -75 8 0 11 15 8 51 -4 62 11 59 29 -6 7
-25 19 -45 26 -45 11 0 9 11 -6 50 -18 45 -18 50 -3 58 28 16 8 42 -32 42
l-35 0 0 -75z"/>
<path d="M767 2059 c-25 -15 -47 -63 -47 -104 0 -38 17 -49 22 -13 4 31 38 33
38 2 0 -15 6 -24 15 -24 12 0 15 15 15 75 0 78 -5 86 -43 64z m13 -44 c0 -16
-6 -25 -15 -25 -18 0 -18 5 -5 31 14 26 20 24 20 -6z"/>
<path d="M824 2053 c2 -10 10 -44 16 -75 7 -37 16 -58 25 -58 9 0 18 21 25 58
6 31 14 65 16 75 3 10 0 17 -9 17 -8 0 -17 -18 -23 -47 l-10 -48 -8 48 c-6 31
-13 47 -23 47 -9 0 -12 -7 -9 -17z"/>
<path d="M920 1995 l0 -75 39 0 c22 0 43 5 46 10 4 6 -7 10 -24 10 -29 0 -31
2 -31 40 0 38 2 40 30 40 31 0 35 6 24 34 -4 11 -19 16 -45 16 l-39 0 0 -75z"/>
<path d="M1030 1995 c0 -43 4 -75 10 -75 6 0 10 25 10 56 l0 57 20 -26 c12
-14 20 -40 20 -61 0 -25 4 -36 15 -36 12 0 15 16 15 80 0 64 -3 80 -15 80 -10
0 -15 -10 -15 -27 l-1 -28 -17 28 c-30 48 -42 34 -42 -48z"/>
<path d="M1140 1995 c0 -54 4 -75 13 -75 9 0 11 12 9 39 -2 21 -2 47 0 57 6
31 42 -36 40 -73 -2 -24 2 -33 13 -33 12 0 15 15 15 80 0 67 -3 80 -16 80 -12
0 -15 -6 -10 -27 l6 -28 -24 28 c-39 42 -46 35 -46 -48z"/>
<path d="M1288 2053 c-9 -10 -21 -28 -27 -40 -14 -27 -15 -93 -1 -93 6 0 10 9
10 19 0 10 7 22 16 25 23 9 24 8 24 -19 0 -14 6 -25 13 -25 8 0 12 22 12 75 0
62 -3 75 -16 75 -9 0 -23 -8 -31 -17z m22 -38 c0 -18 -5 -25 -20 -25 -20 0
-20 1 -4 25 9 14 18 25 20 25 2 0 4 -11 4 -25z"/>
<path d="M1350 1980 c0 -5 13 -10 29 -10 17 0 33 5 36 10 4 6 -8 10 -29 10
-20 0 -36 -4 -36 -10z"/>
<path d="M165 1922 c1 -28 5 -55 9 -60 4 -4 7 -2 6 3 -1 6 -2 12 0 15 7 19 7
60 0 60 -5 0 -10 8 -13 18 -2 9 -3 -7 -2 -36z"/>
<path d="M193 1946 c7 -14 13 -23 15 -21 7 6 -9 45 -18 45 -4 0 -3 -11 3 -24z"/>
<path d="M187 1859 c-3 -11 -10 -19 -14 -16 -5 3 -10 -8 -11 -24 -1 -16 3 -29
9 -29 6 0 8 7 5 16 -4 10 -2 13 6 8 8 -5 9 -2 5 9 -3 10 -2 17 2 17 5 0 9 -15
8 -34 0 -19 -5 -32 -10 -29 -5 3 -4 -4 2 -15 15 -29 14 -40 -2 -17 -10 12 -16
14 -21 7 -4 -7 -3 -12 2 -12 15 0 33 -59 26 -85 -3 -13 -2 -25 3 -28 5 -3 9
50 8 118 0 119 -6 159 -18 114z"/>
<path d="M742 1828 c-23 -23 -14 -77 17 -109 16 -16 37 -29 45 -29 23 0 19 15
-7 27 -32 15 -54 60 -40 81 6 9 21 16 33 14 14 -1 20 3 18 10 -6 18 -50 22
-66 6z"/>
<path d="M850 1820 c-26 -26 -27 -90 -2 -113 10 -10 33 -17 50 -17 25 0 35 6
48 31 39 76 -39 156 -96 99z m68 -12 c14 -14 16 -67 3 -86 -14 -23 -55 -10
-65 20 -7 20 -5 33 8 52 18 28 35 33 54 14z"/>
<path d="M967 1808 c15 -80 29 -122 41 -126 6 -2 12 5 12 15 1 17 1 17 11 1
17 -30 26 -20 38 45 7 34 14 70 17 80 4 11 0 17 -10 17 -11 0 -16 -10 -17 -27
-1 -16 -5 -39 -10 -53 -6 -19 -8 -12 -4 26 3 48 2 52 -19 52 -21 0 -23 -4 -20
-52 l3 -51 -11 53 c-7 31 -16 52 -24 52 -10 0 -12 -9 -7 -32z"/>
<path d="M1102 1763 l3 -78 38 -3 c28 -2 37 0 37 12 0 10 -9 16 -25 16 -22 0
-25 4 -25 40 0 38 1 40 31 40 24 0 30 3 25 16 -3 9 -6 20 -6 25 0 5 -18 9 -41
9 l-40 0 3 -77z m61 50 c-7 -2 -19 -2 -25 0 -7 3 -2 5 12 5 14 0 19 -2 13 -5z"/>
<path d="M1210 1760 c0 -47 4 -80 10 -80 6 0 10 26 10 58 l0 57 20 -25 c12
-15 20 -41 20 -63 0 -26 4 -37 13 -35 18 7 21 168 2 168 -8 0 -15 -12 -17 -27
l-4 -28 -14 28 c-26 52 -40 34 -40 -53z"/>
<path d="M355 1770 c-3 -5 3 -10 15 -10 12 0 24 -9 30 -24 12 -32 27 -40 44
-23 11 11 12 17 3 26 -6 6 -7 11 -1 11 6 0 15 -5 22 -12 7 -7 12 -8 12 -2 0
16 -40 35 -60 29 -10 -3 -21 -1 -25 5 -8 13 -32 13 -40 0z"/>
<path d="M574 1749 c-3 -6 -16 -9 -29 -7 -29 6 -57 -15 -49 -36 7 -18 13 -19
33 -7 9 6 10 11 2 15 -6 4 -11 2 -11 -4 0 -6 -5 -8 -11 -4 -14 8 8 24 34 24
12 0 16 -4 11 -12 -5 -9 -2 -9 9 1 15 11 17 11 17 -2 0 -17 -24 -40 -33 -30
-4 3 -7 1 -7 -6 0 -13 -46 -5 -68 12 -7 5 -15 8 -18 5 -7 -7 63 -48 82 -48 8
0 12 5 9 10 -4 6 5 10 19 10 14 0 26 4 26 9 0 5 9 7 20 4 14 -4 20 0 20 11 0
9 -5 16 -11 16 -5 0 -7 -6 -4 -12 4 -7 -3 -2 -14 11 -26 28 -26 38 -3 44 15 4
15 5 0 6 -9 0 -20 -4 -24 -10z"/>
<path d="M615 1730 c3 -5 8 -10 11 -10 2 0 4 5 4 10 0 6 -5 10 -11 10 -5 0 -7
-4 -4 -10z"/>
<path d="M161 1684 c-1 -25 2 -44 9 -44 12 0 14 76 2 84 -5 3 -9 -15 -11 -40z"/>
<path d="M567 1649 c-21 -12 -23 -57 -3 -65 19 -7 73 21 57 30 -6 4 -11 1 -11
-6 0 -10 -3 -9 -11 2 -8 11 -12 12 -16 3 -2 -7 -9 -13 -14 -13 -5 0 -4 8 2 19
9 13 21 17 43 15 22 -3 27 -1 16 5 -8 6 -18 7 -23 4 -5 -3 -12 -1 -16 5 -4 7
-12 7 -24 1z"/>
<path d="M526 1585 c-3 -9 0 -15 9 -15 9 0 12 6 9 15 -4 8 -7 15 -9 15 -2 0
-5 -7 -9 -15z"/>
<path d="M163 1551 c1 -29 4 -36 13 -27 6 6 8 13 3 16 -5 3 0 12 11 20 11 8
20 19 20 24 0 6 -5 5 -12 -2 -15 -15 -32 -16 -23 -2 3 6 2 10 -3 10 -6 0 -9
-17 -9 -39z"/>
<path d="M620 1570 c0 -11 -4 -20 -10 -20 -5 0 -10 4 -10 9 0 5 -13 -3 -30
-17 -16 -14 -27 -28 -25 -31 3 -2 13 3 23 12 18 17 62 13 62 -5 0 -5 -5 -6
-11 -2 -8 5 -8 1 0 -14 17 -31 13 -35 -13 -15 -19 14 -22 21 -13 33 7 8 0 5
-15 -5 -25 -19 -25 -20 -5 -23 12 -2 26 -10 30 -18 4 -8 14 -14 21 -14 17 0
29 27 16 35 -5 3 -7 12 -4 19 3 8 1 17 -5 20 -7 5 -7 15 -1 31 6 16 6 25 0 25
-6 0 -10 -9 -10 -20z"/>
<path d="M460 1571 c0 -5 11 -12 25 -15 17 -4 23 -11 19 -19 -5 -8 -2 -8 7 1
12 11 11 15 -5 28 -22 16 -46 19 -46 5z"/>
<path d="M190 1511 c8 -6 10 -11 4 -11 -6 0 -11 -6 -11 -13 0 -8 6 -14 13 -14
18 0 11 40 -7 45 -11 3 -11 1 1 -7z"/>
<path d="M164 1439 c1 -41 5 -55 13 -52 7 3 10 10 6 16 -4 6 -1 7 6 3 7 -5 10
-14 7 -22 -3 -8 1 -14 9 -14 16 0 20 16 6 24 -4 3 -6 16 -4 30 3 13 -1 27 -7
31 -9 5 -10 1 -5 -14 5 -16 2 -21 -10 -21 -11 0 -15 5 -11 15 3 8 2 25 -3 37
-6 17 -8 8 -7 -33z"/>
<path d="M576 1462 c-3 -6 -2 -12 3 -14 16 -5 17 -32 2 -33 -8 0 -16 -6 -19
-13 -2 -8 2 -10 15 -5 16 6 16 5 4 -10 -12 -15 -12 -17 3 -11 10 4 15 12 12
20 -3 7 7 17 25 23 17 6 28 15 24 21 -3 5 -8 10 -11 10 -3 0 -2 -4 1 -10 11
-18 -14 -10 -34 11 -11 12 -22 16 -25 11z"/>
<path d="M527 1428 c2 -5 10 -8 18 -8 8 0 16 3 18 8 3 4 -5 7 -18 7 -13 0 -21
-3 -18 -7z"/>
<path d="M610 1402 c0 -4 16 -16 35 -26 29 -16 39 -17 61 -7 34 15 28 20 -29
22 -26 1 -47 6 -47 11 0 4 -4 8 -10 8 -5 0 -10 -3 -10 -8z"/>
<path d="M163 1353 c0 -10 6 -25 14 -35 12 -13 12 -18 1 -25 -22 -14 -18 -48
7 -48 12 0 22 5 22 11 0 6 -9 9 -19 6 -13 -3 -17 0 -12 11 3 9 13 14 22 10 15
-4 15 -3 2 6 -13 9 -13 11 0 11 13 0 13 1 0 10 -13 9 -13 10 0 10 13 0 13 2 0
9 -8 6 -18 7 -23 4 -5 -3 -6 4 -2 16 3 11 2 21 -3 21 -5 0 -9 -8 -9 -17z"/>
<path d="M584 1359 c-3 -6 -12 -8 -20 -5 -10 4 -14 -2 -13 -22 1 -18 3 -21 6
-9 3 12 8 15 16 8 8 -6 20 -5 34 3 22 11 22 12 3 24 -13 8 -21 8 -26 1z"/>
<path d="M195 1350 c3 -5 8 -10 11 -10 2 0 4 5 4 10 0 6 -5 10 -11 10 -5 0 -7
-4 -4 -10z"/>
<path d="M170 1230 c-9 -6 -10 -10 -3 -10 6 0 15 5 18 10 8 12 4 12 -15 0z"/>
<path d="M183 1216 c-13 -6 -23 -18 -23 -26 0 -12 2 -13 9 -1 6 10 10 10 13 1
2 -7 9 -1 16 14 6 14 11 25 9 25 -1 -1 -12 -6 -24 -13z"/>
<path d="M186 1151 c-6 -9 9 -61 17 -61 2 0 4 13 5 30 1 30 -12 48 -22 31z"/>
<path d="M161 1134 c0 -11 3 -14 6 -6 3 7 2 16 -1 19 -3 4 -6 -2 -5 -13z"/>
<path d="M670 1110 c-12 -7 -11 -12 5 -31 16 -17 16 -21 4 -17 -13 5 -16 -2
-17 -34 -1 -23 3 -47 9 -54 9 -11 8 -14 -5 -14 -9 0 -16 -4 -16 -8 0 -11 58
-3 66 9 3 5 -3 9 -13 9 -11 0 -14 3 -7 8 7 4 12 36 13 75 1 68 -6 78 -39 57z"/>
<path d="M161 1094 c0 -11 3 -14 6 -6 3 7 2 16 -1 19 -3 4 -6 -2 -5 -13z"/>
<path d="M525 1100 c3 -5 8 -10 11 -10 2 0 4 5 4 10 0 6 -5 10 -11 10 -5 0 -7
-4 -4 -10z"/>
<path d="M560 1074 c0 -6 9 -19 19 -28 18 -17 20 -17 41 4 12 12 19 25 15 28
-4 4 -12 0 -18 -8 -15 -20 -35 -19 -47 0 -5 8 -10 10 -10 4z"/>
<path d="M725 1070 c-3 -5 -1 -10 4 -10 6 0 11 5 11 10 0 6 -2 10 -4 10 -3 0
-8 -4 -11 -10z"/>
<path d="M195 1060 c3 -5 8 -10 11 -10 2 0 4 5 4 10 0 6 -5 10 -11 10 -5 0 -7
-4 -4 -10z"/>
<path d="M531 1053 c-16 -17 -11 -25 8 -14 7 5 12 13 10 19 -2 6 -10 4 -18 -5z"/>
<path d="M481 1040 c-1 -18 16 -46 23 -40 2 3 -2 16 -9 30 -8 15 -14 19 -14
10z"/>
<path d="M160 1020 c0 -5 5 -10 11 -10 5 0 7 5 4 10 -3 6 -8 10 -11 10 -2 0
-4 -4 -4 -10z"/>
<path d="M536 1018 c-24 -14 -19 -29 7 -23 17 5 33 -1 55 -20 36 -30 42 -21
12 17 -23 30 -50 39 -74 26z"/>
<path d="M620 1020 c-13 -8 -12 -10 3 -10 9 0 17 5 17 10 0 12 -1 12 -20 0z"/>
<path d="M728 1018 c7 -7 16 -7 28 0 14 8 13 10 -10 10 -18 0 -24 -4 -18 -10z"/>
<path d="M192 990 c0 -14 2 -19 5 -12 2 6 2 18 0 25 -3 6 -5 1 -5 -13z"/>
<path d="M775 930 c3 -5 15 -7 27 -5 32 7 31 12 -2 13 -17 0 -28 -3 -25 -8z"/>
<path d="M577 880 c-6 -23 10 -26 36 -6 23 17 22 21 -7 24 -16 1 -25 -5 -29
-18z"/>
<path d="M894 879 c-3 -6 -17 -9 -30 -6 -13 2 -24 0 -24 -4 0 -8 6 -10 43 -13
6 -1 16 -5 20 -11 5 -5 6 1 2 15 -5 23 -5 23 8 8 16 -20 27 -23 27 -8 0 16
-38 32 -46 19z"/>
<path d="M1380 811 c0 -5 5 -13 10 -16 6 -3 10 -2 10 4 0 5 -4 13 -10 16 -5 3
-10 2 -10 -4z"/>
<path d="M1330 800 c0 -5 5 -10 10 -10 6 0 10 5 10 10 0 6 -4 10 -10 10 -5 0
-10 -4 -10 -10z"/>
<path d="M460 751 c0 -5 5 -13 10 -16 6 -3 10 -2 10 4 0 5 -4 13 -10 16 -5 3
-10 2 -10 -4z"/>
<path d="M428 723 c7 -3 16 -2 19 1 4 3 -2 6 -13 5 -11 0 -14 -3 -6 -6z"/>
<path d="M330 710 c0 -5 5 -10 10 -10 6 0 10 5 10 10 0 6 -4 10 -10 10 -5 0
-10 -4 -10 -10z"/>
<path d="M1625 670 c-3 -5 -2 -10 4 -10 5 0 13 5 16 10 3 6 2 10 -4 10 -5 0
-13 -4 -16 -10z"/>
<path d="M192 628 c0 -13 -2 -32 -5 -43 -2 -11 1 -23 7 -27 6 -4 7 -11 2 -15
-4 -4 -13 0 -21 10 -11 16 -12 15 -12 -8 0 -21 3 -25 21 -20 11 2 15 2 9 -1
-7 -3 -13 -23 -13 -45 0 -21 -4 -39 -10 -39 -5 0 -10 -5 -10 -12 0 -9 3 -9 12
0 14 14 32 16 23 2 -3 -5 -2 -16 2 -24 4 -8 8 24 7 72 -1 48 3 95 8 105 5 10
5 17 0 17 -5 0 -8 11 -7 25 2 14 0 25 -5 25 -4 0 -8 -10 -8 -22z"/>
<path d="M169 628 c-5 -19 -8 -50 -4 -46 7 7 15 48 9 48 -2 0 -4 -1 -5 -2z"/>
<path d="M169 389 c0 -13 -2 -35 -5 -49 -3 -17 -1 -21 5 -11 6 9 11 10 15 2
10 -15 23 -14 23 3 0 8 -5 12 -12 10 -6 -3 -12 9 -13 28 -3 39 -12 51 -13 17z"/>
<path d="M164 284 c0 -13 5 -20 12 -17 7 2 15 -1 20 -8 4 -8 3 -10 -4 -5 -7 4
-12 2 -12 -4 0 -6 -4 -8 -10 -5 -5 3 -10 1 -10 -5 0 -7 7 -9 16 -6 9 3 20 6
25 6 4 0 8 15 7 33 -1 27 -5 33 -23 33 -15 0 -21 -6 -21 -22z m29 2 c4 -10 1
-13 -8 -9 -8 3 -12 9 -9 14 7 12 11 11 17 -5z"/>
<path d="M187 217 c-3 -8 1 -14 9 -14 16 0 19 13 5 21 -5 3 -11 0 -14 -7z"/>
</g>
</svg>
